<?xml version="1.0" standalone="no"?>
<!DOCTYPE svg PUBLIC "-//W3C//DTD SVG 20010904//EN"
 "http://www.w3.org/TR/2001/REC-SVG-20010904/DTD/svg10.dtd">
<svg version="1.0" xmlns="http://www.w3.org/2000/svg"
 width="200.000000pt" height="200.000000pt" viewBox="0 0 200.000000 200.000000"
 preserveAspectRatio="xMidYMid meet">
<metadata>
Created by potrace 1.11, written by Peter Selinger 2001-2013
</metadata>
<g transform="translate(0.000000,200.000000) scale(0.100000,-0.100000)"
fill="#000000" stroke="none">
<path d="M907 1554 c-21 -14 -52 -33 -70 -43 -110 -62 -107 -60 -107 -107 0
-38 -3 -44 -21 -44 -21 0 -118 -53 -129 -71 -4 -6 -5 -379 -1 -400 3 -15 115
-80 131 -76 13 3 20 -3 24 -22 4 -20 30 -42 108 -91 56 -36 105 -66 110 -68 9
-4 238 137 237 146 -4 29 3 44 17 38 10 -4 39 8 75 31 45 29 59 44 60 63 3
108 3 323 -1 329 -14 20 -115 72 -131 68 -11 -3 -19 -2 -20 1 0 4 -1 37 -2 74
-1 36 -4 68 -7 71 -24 20 -210 127 -221 126 -8 0 -31 -11 -52 -25z m39 -861
c-7 -7 -164 96 -168 110 -2 7 -4 50 -3 97 l0 85 28 -3 c27 -3 28 -2 25 35 -3
34 -6 38 -28 36 -24 -1 -26 2 -25 46 0 45 1 47 28 43 25 -4 27 -2 27 31 0 41
-11 52 -37 38 -16 -8 -18 -3 -18 59 0 38 2 67 5 64 3 -3 5 -11 5 -17 0 -7 11
-12 25 -12 23 0 25 4 26 43 1 38 -1 42 -23 42 -15 0 -27 -8 -33 -22 -7 -19 -8
-15 -6 17 3 38 6 41 87 90 l84 51 3 -414 c1 -228 0 -417 -2 -419z m137 769
c45 -27 57 -40 58 -61 0 -14 1 -156 2 -315 l2 -289 -65 -42 c-36 -23 -75 -47
-87 -54 l-23 -12 0 422 0 421 28 -18 c15 -10 53 -33 85 -52z m-353 -378 c0
-202 -1 -213 -19 -219 -12 -4 -34 3 -55 17 l-36 23 0 182 0 182 42 25 c67 40
68 36 68 -210z m534 155 l36 -21 0 -153 0 -152 -42 -28 c-68 -45 -71 -37 -70
158 1 234 -1 217 21 217 11 0 36 -9 55 -21z"/>
<path d="M867 1223 c-4 -3 -7 -24 -7 -45 0 -33 3 -38 24 -38 20 0 25 6 28 34
2 19 2 39 0 45 -4 12 -35 15 -45 4z"/>
<path d="M865 951 c-11 -19 0 -73 17 -82 27 -15 37 -3 33 38 -4 42 -34 69 -50
44z"/>
<path d="M994 1406 c-12 -31 1 -79 24 -87 21 -8 22 -6 22 34 0 32 -5 45 -20
55 -17 10 -21 10 -26 -2z"/>
<path d="M1082 1253 c2 -30 7 -38 23 -38 14 0 20 7 21 25 2 36 -6 50 -28 50
-16 0 -19 -6 -16 -37z"/>
<path d="M988 1129 c-2 -6 -2 -26 0 -45 3 -24 9 -34 22 -34 20 0 26 12 25 55
0 23 -5 31 -21 33 -12 2 -24 -2 -26 -9z"/>
<path d="M1081 1039 c-12 -35 -2 -61 23 -57 16 2 21 10 21 38 0 42 -30 55 -44
19z"/>
<path d="M997 865 c-19 -18 -20 -85 -2 -85 33 0 45 31 36 93 -2 12 -18 8 -34
-8z"/>
<path d="M1105 610 c3 -5 8 -10 11 -10 2 0 4 5 4 10 0 6 -5 10 -11 10 -5 0 -7
-4 -4 -10z"/>
<path d="M1540 609 c0 -5 5 -7 10 -4 6 3 10 8 10 11 0 2 -4 4 -10 4 -5 0 -10
-5 -10 -11z"/>
<path d="M1575 525 c1 -52 3 -97 6 -99 2 -2 14 -7 27 -10 16 -6 22 -3 22 8 0
9 -9 16 -20 16 -18 0 -20 7 -20 55 0 46 3 55 16 53 10 -2 19 3 21 10 3 7 -4
12 -16 12 -16 0 -21 6 -21 25 0 14 -4 25 -8 25 -5 0 -8 -43 -7 -95z"/>
<path d="M1645 610 c3 -5 8 -10 11 -10 2 0 4 5 4 10 0 6 -5 10 -11 10 -5 0 -7
-4 -4 -10z"/>
<path d="M102 558 c3 -8 19 -12 41 -11 23 1 37 -4 41 -14 9 -22 -3 -34 -32
-33 -48 3 -52 1 -52 -34 0 -41 11 -50 63 -53 l38 -1 -3 76 -3 77 -49 3 c-36 2
-47 0 -44 -10z m88 -98 c0 -17 -7 -20 -39 -20 -38 0 -42 5 -32 38 1 1 17 2 36
2 28 0 35 -4 35 -20z"/>
<path d="M219 568 c-6 -13 -3 -151 3 -154 5 -3 8 27 8 65 0 61 2 71 18 71 30
0 37 -14 37 -65 -2 -80 10 -87 15 -10 5 63 7 70 28 73 23 4 27 -13 23 -95 -1
-17 2 -34 7 -37 10 -6 16 106 7 134 -6 17 -16 20 -76 20 -38 0 -70 -1 -70 -2z"/>
<path d="M380 560 c0 -5 8 -10 18 -11 9 -1 28 -2 42 -2 18 -2 26 -9 28 -25 3
-18 -1 -23 -15 -22 -10 1 -30 2 -45 1 -24 -1 -26 -4 -23 -37 2 -19 6 -38 9
-42 12 -11 86 -11 87 1 5 53 4 115 -3 130 -6 12 -21 17 -53 17 -25 0 -45 -4
-45 -10z m90 -100 c0 -16 -7 -20 -34 -20 -20 0 -36 6 -39 14 -8 20 2 26 40 26
26 0 33 -4 33 -20z"/>
<path d="M495 560 c-6 -9 39 -15 74 -10 9 1 0 -16 -21 -42 -42 -51 -61 -85
-51 -90 5 -2 28 -4 52 -3 58 0 67 23 12 27 l-41 3 40 45 c55 63 53 80 -9 80
-28 0 -53 -4 -56 -10z"/>
<path d="M622 553 c-9 -20 -9 -119 1 -129 11 -11 77 -11 85 0 11 15 15 80 7
116 -6 27 -10 30 -45 30 -27 0 -42 -5 -48 -17z m79 -20 c1 -7 2 -24 2 -38 0
-53 -2 -55 -38 -55 l-35 0 0 48 c0 27 3 51 6 55 12 11 64 4 65 -10z"/>
<path d="M733 495 c1 -41 5 -75 9 -75 4 0 8 29 8 66 l0 65 33 -4 32 -3 6 -70
c5 -69 10 -65 13 12 4 69 -7 84 -57 84 l-45 0 1 -75z"/>
<path d="M907 564 c-4 -4 -7 -41 -7 -82 0 -90 12 -90 14 0 l1 63 36 3 36 3 -2
-43 c-2 -73 7 -92 44 -94 48 -2 61 17 61 92 0 35 -4 64 -9 64 -4 0 -7 -24 -7
-52 3 -71 -1 -78 -40 -78 l-34 0 0 63 0 63 -43 2 c-24 2 -46 0 -50 -4z"/>
<path d="M1111 570 c-8 -13 -7 -160 1 -152 5 5 7 42 5 83 -1 41 -4 72 -6 69z"/>
<path d="M1138 494 c-2 -42 0 -78 5 -81 7 -4 8 9 10 99 1 34 3 36 34 36 18 0
34 -3 34 -6 1 -4 2 -33 3 -64 3 -81 16 -85 16 -5 0 90 -4 97 -55 97 l-43 0 -4
-76z"/>
<path d="M1261 548 c-14 -38 2 -63 43 -66 29 -3 36 -7 36 -24 0 -17 -5 -20
-40 -16 -28 2 -40 0 -40 -9 0 -7 6 -13 13 -14 6 -1 24 -2 40 -3 33 -3 45 10
43 49 -2 27 -6 30 -41 35 -32 4 -40 9 -40 25 0 15 7 20 30 21 17 1 36 -4 44
-10 12 -9 13 -8 8 7 -4 10 -7 21 -7 23 0 2 -18 4 -40 4 -33 0 -42 -4 -49 -22z"/>
<path d="M1426 554 c-11 -28 -7 -123 6 -130 6 -4 29 -8 50 -9 55 -3 51 23 -4
27 -43 3 -43 3 -44 43 -1 58 4 65 44 62 21 -1 37 3 39 11 7 19 -83 16 -91 -4z"/>
<path d="M1540 489 c0 -46 4 -78 8 -71 10 15 9 138 -1 148 -4 4 -7 -31 -7 -77z"/>
<path d="M1645 496 c0 -41 4 -78 8 -82 4 -4 7 29 7 74 0 45 -4 82 -8 82 -4 0
-8 -33 -7 -74z"/>
<path d="M1686 555 c-10 -28 -7 -123 5 -131 6 -3 28 -8 50 -10 30 -3 39 0 39
11 0 11 -11 15 -38 15 -43 0 -53 6 -45 26 3 9 20 14 45 14 l39 0 -3 43 c-3 42
-3 42 -44 45 -31 2 -43 -1 -48 -13z m73 -14 c24 -16 4 -41 -32 -41 -31 0 -34
2 -29 25 5 26 33 34 61 16z"/>
<path d="M1804 546 c-11 -45 3 -66 46 -66 30 0 38 -4 36 -17 -3 -22 -35 -33
-63 -22 -17 6 -23 5 -23 -6 0 -8 6 -16 13 -16 6 -1 23 -3 37 -4 33 -4 50 11
50 46 0 32 -9 40 -50 41 -48 2 -49 42 0 46 13 0 30 -4 38 -11 12 -9 14 -8 11
8 -3 16 -14 21 -46 23 -38 3 -43 0 -49 -22z"/>
</g>
</svg>
